/* XPM */
static char *_a8c9d7faa394729da6a0578c6f5e1b9H4nLKbjMrGrYZQ9g[] = {
/* columns rows colors chars-per-pixel */
"32 32 5 1 ",
"  c black",
". c #3F3F74",
"X c #CBC208",
"o c #FBF236",
"O c #99E550",
/* pixels */
"...............  ...............",
".............. XX ..............",
".............. XX ..............",
"............. XooX .............",
"............. XooX .............",
"............ XooooX ............",
"............ XooooX ............",
"........... XooooooX ...........",
"........... XooooooX ...........",
".......... XooooooooX ..........",
".......... XooooooooX ..........",
"......... XooooooooooX .........",
"......... XooooooooooX .........",
"         Xoo  oooo  ooX         ",
" XXXXXXXXoo OO oo OO ooXXXXXXXX ",
".  ooooooo OOOO  OOOO ooooooo  .",
"...  ooooo OO O  O OO ooooo  ...",
".....  ooo OOOOOOOOOO ooo  .....",
".......  o OOO OO OOO o  .......",
"......... X OOO  OOO X .........",
"........ XoX OOOOOO XoX ........",
"........ XooX      XooX ........",
"....... XooooXXXXXXooooX .......",
"....... XooooooooooooooX .......",
"...... XooooooooooooooooX ......",
"...... Xooooooo  oooooooX ......",
"..... Xooooooo .. oooooooX .....",
"..... Xooooo  ....  oooooX .....",
".... Xoooo  ........  ooooX ....",
".... Xoo  ............  ooX ....",
"... Xo  ................  oX ...",
"...   ....................   ..."
};
