/* XPM */
static char *_7326b19390348c9f5bdd1188580b9906blvrQ3ggRByBKzf[] = {
/* columns rows colors chars-per-pixel */
"32 32 6 1 ",
"  c black",
". c #3F3F74",
"X c #306082",
"o c #5B6EE1",
"O c #639BFF",
"+ c #5FCDE4",
/* pixels */
"............        ............",
"......... X oO+++XXX   .........",
"........ .XoO+++Xoooooo ........",
"......  .XoO+++XoOOOOOOO  ......",
"..... O+XoO+++XoO+++++++++ .....",
".... O++XoO++XoO+++++++++++ ....",
"... oO++XoO++XoO++++++++++++ ...",
"... oO+XoO++XoO+++++++XXXXXX ...",
".. XoO+XoO+XooO++++++XooooooX ..",
". XoO++XoO+XoO++++++XoOOOOOOoo .",
". XoO++XoO+XoO+++++XoO++++++OO .",
". XoO++XoOOXoO++++XoO++++++++O .",
" OOXoO+XooOXoO+++XoO+++++++++++ ",
" oOXoO++XXoXooO+XoO++++++++++++ ",
" oOXoO++++X.XooXoO+XXXXXXX+++++ ",
" oO+XoO++++X.XoXoXXoooooooXX+++ ",
" oO+XooO++++X.X.XooOOOOOOOooX++ ",
" oO++XXoOOO++X.XoOO+++++++OOoX+ ",
" oO++++XoooOOOXXXX++++++++++OoX ",
" XoOO+++XXXooX.XooXX++++++++OoX ",
". XooOOOOOOXX.XoXOooXX++++++Oo .",
". +XXooooooooXOoX+OOooX+++++Oo .",
". +++XXXXXXXX+OoX+++OOoX++++Oo .",
".. +++++++++++OoX+++++OoX+++O ..",
"... ++++++++++OoX+++++OoX+++ ...",
"... ++++++++++OoX+++++OoX+++ ...",
".... +++++++++OoX+++++OoX++ ....",
"..... +++++OOOOoX++++OoX++ .....",
"......  OOOooooX++++OOoX  ......",
"........ ooXXXX++++Oooo ........",
".........   +++++++O   .........",
"............        ............"
};
