/* XPM */
static char *result[] = {
/* columns rows colors chars-per-pixel */
"32 32 5 1 ",
"  c black",
". c #3F3F74",
"X c #6ABE30",
"o c #99E550",
"O c white",
/* pixels */
".............oooooo.............",
".............oOOoooo............",
".............OOOOooo............",
".............  OOOoo............",
".............   OOoo............",
".............   OOoo............",
".............   OOoo............",
".............  OOOooo...........",
".............OOOOooooo..........",
"............ooooooooooo.........",
"...........ooooooooooooo........",
"..........ooooooooooooooo.......",
"..........ooooooooooooooo.......",
"..........ooooooooooooooo.......",
"..........oooooooo oooooo.......",
"..........ooooo   ooooooo.......",
"..........     oooooooooo.......",
"..........oooooooooooooo........",
"...........oooooooooooo.........",
"...........oooooooooooo.........",
"............oooooooooo..........",
"...............XXXXX............",
"..............XXXXXX............",
"..............XXXXXXX...........",
"..............XXXXXXX...........",
"..............XXXXXXX...........",
".............oooXXXXX...........",
"............ooooXXXXX...........",
"...........ooooXXXXXX...........",
"...........oooXXXXXXX...........",
"...........ooXXXXXXXX...........",
"...........oXXXXXXXX............"
};
