/* XPM */
static char *result[] = {
/* columns rows colors chars-per-pixel */
"32 32 4 1 ",
"  c #4B692F",
". c #3F3F74",
"X c #6ABE30",
"o c #99E550",
/* pixels */
".....      ..........      .....",
".... oooooo ........ oooooo ....",
"....oooooooo........oooooooo....",
"....oooooooo........oooooooo....",
"....oooooooo........oooooooo....",
"....oooooooo........oooooooo....",
"....oooooooo........oooooooo....",
"....oooooooo........oooooooo....",
"....oooooooooooooooooooooooo....",
"...oooooooooooooooooooooooooo...",
"..oooooooooooooooooooooooooooo..",
".oooooooooooooooooooooooooooooo.",
".oooooooooooooooooooooooooooooo.",
".oooooooooooooooooooooooooooooo.",
".oooooooooooooooooooooooooooooo.",
".oooooooooooooooooooooooooooooo.",
".oooooooooooooooooooooooooooooo.",
".oooooooooooooooooooooooooooooo.",
".oooooooooooooooooooooooooooooo.",
"..oooooooooooooooooooooooooooo..",
"...oooooooooooooooooooooooooo...",
"....oooooooooooooooooooooooo....",
"........... o o o o o ..........",
"...........o o o o o o..........",
".......o...ooooooooooo...o......",
"......ooooooooooooooooooooo.....",
"......ooooooooooooooooooooo.....",
"......ooooooooooooooooooooo.....",
".....ooooooooooooooooooooooo....",
".....oooooooooX..Xoooooooooo....",
".....ooooooooo....oooooooooo....",
"....ooooooooo......oooooooooo..."
};
