/* XPM */
static char *result[] = {
/* columns rows colors chars-per-pixel */
"32 32 6 1 ",
"  c black",
". c #4B692F",
"X c #3F3F74",
"o c #6ABE30",
"O c #99E550",
"+ c white",
/* pixels */
"XXXXXOOOOOOXXXXXXXXXXOOOOOOXXXXX",
"XXXXO++++++OXXXXXXXXO++++++OXXXX",
"XXXXO++++++OXXXXXXXXO++++++OXXXX",
"XXXXO++  ++OXXXXXXXXO++  ++OXXXX",
"XXXXO+    +OXXXXXXXXO+    +OXXXX",
"XXXXO+    +OXXXXXXXXO+    +OXXXX",
"XXXXO+    +OXXXXXXXXO+    +OXXXX",
"XXXXO++  ++OXXXXXXXXO++  ++OXXXX",
"XXXXO++++++OOOOOOOOOO++++++OXXXX",
"XXXOO++++++OOOOOOOOOO++++++OOXXX",
"XXOOOOOOOOOOOOOOOOOOOOOOOOOOOOXX",
"XOOOOOOOOOOOOOOOOOOOOOOOOOOOOOOX",
"XOOOOOOOOOOOOOOOOOOOOOOOOOOOOOOX",
"XOOOOOOOOOOOOOOOOOOOOOOOOOOOOOOX",
"XOOOOOOOOOOOO.OOO.OOOOOOOOOOOOOX",
"XO OOOOOOOOOOOOOOOOOOOOOOOOOO OX",
"XOO OOOOOOOOOOOOOOOOOOOOOOOO OOX",
"XOOO                        OOOX",
"XOOOOOOOOOOOOOOOOOOOOOOOOOOOOOOX",
"XXOOOOOOOOOOOOOOOOOOOOOOOOOOOOXX",
"XXXOOOOOOOOOOOOOOOOOOOOOOOOOOXXX",
"XXXXOOOOOOOOOOOOOOOOOOOOOOOOXXXX",
"XXXXXXXXXXXoooooooooooXXXXXXXXXX",
"XXXXXXXXXXXoooooooooooXXXXXXXXXX",
"XXXXXXXoXXXoooooooooooXXXoXXXXXX",
"XXXXXXoooooooooooooooooooooXXXXX",
"XXXXXXoooooooooooooooooooooXXXXX",
"XXXXXXooooooOOOooOOOoooooooXXXXX",
"XXXXXoooooooOOOooOOOooooooooXXXX",
"XXXXXooooooOOOoXXoOOOoooooooXXXX",
"XXXXXoooooOOOOXXXXOOOOooooooXXXX",
"XXXXoooooOOOOXXXXXXOOOOooooooXXX"
};
