/* XPM */
static char *result[] = {
/* columns rows colors chars-per-pixel */
"32 32 5 1 ",
"  c black",
". c #3F3F74",
"X c #6ABE30",
"o c #99E550",
"O c white",
/* pixels */
".............oooooo.............",
"............ooooOOo.............",
"............oooOOOO.............",
"............ooOOO  .............",
"............ooOO   .............",
"............ooOO   .............",
"............ooOO   .............",
"...........oooOOO  .............",
"..........oooooOOOO.............",
".........ooooooooooo............",
"........ooooooooooooo...........",
".......ooooooooooooooo..........",
".......ooooooooooooooo..........",
".......ooooooooooooooo..........",
".......oooooo oooooooo..........",
".......ooooooo   ooooo..........",
".......oooooooooo     ..........",
"........oooooooooooooo..........",
".........oooooooooooo...........",
".........oooooooooooo...........",
"..........oooooooooo............",
"............XXXXX...............",
"............XXXXXX..............",
"...........XXXXXXX..............",
"...........XXXXXXX..............",
"...........XXXXXXX..............",
"...........XXXXXooo.............",
"...........XXXXXoooo............",
"...........XXXXXXoooo...........",
"...........XXXXXXXooo...........",
"...........XXXXXXXXoo...........",
"............XXXXXXXXo..........."
};
