/* XPM */
static char *result[] = {
/* columns rows colors chars-per-pixel */
"32 32 3 1 ",
"  c #4B692F",
". c #3F3F74",
"X c #37946E",
/* pixels */
"............        ............",
".........   X XXXXXX   .........",
"........  XXX XXXXXXXXX ........",
"......  XXXXXX XXXXXXXXXX ......",
"..... XXXXXXXX XXXXXXXXXXX .....",
".... XXXXXXXXXX XXXXXXXXXXX ....",
"...  XXXXXXXXXX XXXXXXXXXXXX ...",
"... X  XXXXXXXX XXXXXXXXXXXX ...",
".. XXXX XXXXXXXX XXXXXXXXXX X ..",
".  XXXXX XXXXXXX XXXXXXXXX XXX .",
". XXXXXXX XXXXXX XXXXXXXX XXXX .",
". XXXXXXXX XXXXX XXXXXX  XXXXX .",
" XXXXXXXXXX XXXXX XXXX XXXXXXXX ",
"     XXXXXXX  XXX XXX XXXXXXXXX ",
" XXXX    XXXXX XX XX XXXXXXXXXX ",
" XXXXXXXX    XX  X      XXXXXXX ",
" XXXXXXXXXXXX     XXXXXX        ",
" XXXXXXXXXXXXX X X XXXXXXXXXXXX ",
" XXXXXXXXXXXX XX X XXXXXXXXXXXX ",
" XXXXXXXXXXX XXX XX XXXXXXXXXXX ",
". XXXXXXXXX XXXX XXX XXXXXXXXX .",
". XXXXXXXX XXXXX XXX XXXXXXXXX .",
".  XXXXXX XXXXXX XXXX XXXXXXXX .",
"..  XX   XXXXXX . XXXX XXXXXX ..",
"...   XXXXXXXX ... XXXX XXXX ...",
"...  XXXXXXXX ..... XXXX XXX ...",
"....  XXXXXXX ..... XXXXX X ....",
"..... XXXXXX ....... XXXX  .....",
"......  XXXX ....... XXX  ......",
"........ XX ......... X  .......",
".........   .........   ........",
".......... ........... ........."
};
